<?xml version="1.0" encoding="utf-8" ?>
<svg xmlns="http://www.w3.org/2000/svg" xmlns:xlink="http://www.w3.org/1999/xlink" width="370" height="296">
	<path fill="#F2F1E3" transform="scale(0.289062 0.289062)" d="M0 0L1278.91 0C1280.3 2.44878 1279.99 5.15956 1280 7.90141L1280.01 807.041L1280 969.618C1280 976.707 1280.96 1018.64 1279.61 1022.62C1279.43 1023.14 1279.19 1023.51 1278.91 1024L0 1024L0 0Z"/>
	<path fill="#291725" transform="scale(0.289062 0.289062)" d="M190.061 50.769C203.436 49.9323 217.264 50.626 230.679 50.6434L310.546 50.7214L569.405 50.6766L741.792 50.566L793.442 50.5417C801.959 50.5397 811.174 49.8092 819.595 50.7879C826.693 51.6129 834.454 54.9637 841.307 57.174Q865.595 64.9831 889.768 73.1424L996.562 108.178C1013.51 113.724 1030.62 118.909 1047.47 124.73C1049.87 125.561 1052.16 126.384 1054.14 128.036C1054.82 128.631 1055.19 129.062 1055.7 129.806C1057.04 131.784 1057.96 133.89 1057.53 136.297C1057.57 136.435 1057.61 136.571 1057.63 136.711C1057.73 137.342 1057.7 137.916 1057.64 138.548C1056.64 148.965 1048.94 145.293 1046.51 148.669C1043.71 152.549 1049.27 158.795 1042.43 165.774C1039.63 168.625 1034 167.889 1033.04 168.852C1030.45 171.447 1032.77 176.998 1030.25 179.999C1027.92 182.772 1023.35 183.36 1019.98 183.622L1019.93 464.289C1023.7 467.752 1037.38 478.58 1038.41 482.616C1045.9 482.63 1076.6 481.188 1081.49 483.241C1082.37 483.61 1082.14 483.391 1082.49 484.326C1083.77 487.748 1083.74 495.232 1082.34 498.55C1080.94 499.985 1079.44 499.969 1077.54 500.192L1076.67 500.289C1076.37 500.564 1075.95 500.746 1075.78 501.113C1074.48 503.932 1074.38 509.759 1073.84 512.996C1071.59 526.458 1069.91 540.743 1065.96 553.803C1066.69 554.182 1067.44 554.597 1068.1 555.104C1070.31 556.812 1070.52 560.221 1070.81 562.812C1071.19 566.205 1070.88 569.121 1068.68 571.82C1064.44 574.541 1028.12 572.808 1020.74 572.781L1020.65 782.989C1024.68 780.217 1029.13 777.809 1033.68 776.025C1045.81 771.27 1059.45 771.282 1071.36 776.706C1076.66 779.116 1086.9 785.314 1089.01 790.859C1101.56 787.561 1111.96 787.082 1123.87 793.062C1135.69 799.003 1144.95 809.097 1149.01 821.775C1151.13 828.407 1152.78 838.905 1149.47 845.358Q1152.56 845.023 1155.65 844.79C1167.6 843.95 1179.69 848.448 1188.66 856.267C1198.7 865.022 1204.28 877.177 1205.04 890.414C1205.43 897.108 1204.9 911.256 1200.22 916.488C1201.54 917.911 1201.99 919.389 1202.57 921.205C1205.17 929.357 1204.12 938.133 1199.88 945.588C1198.16 948.61 1195.94 951.275 1194.32 954.367C1195.37 954.98 1196.37 955.32 1196.91 956.483C1198.41 959.7 1197.97 970.419 1196.7 973.71C1194.96 975.144 1192.94 974.852 1190.73 974.926C1174.95 975.453 1158.98 974.866 1143.18 974.835L1052.2 974.814L757.031 974.774L89.6081 974.922C86.4862 974.928 81.029 975.269 78.6777 972.937C77.306 968.97 77.2503 960.377 79.1973 956.67C82.8719 949.673 97.833 946.527 105.152 944.061C103.66 940.35 102.408 936.317 101.877 932.346Q101.753 931.459 101.673 930.567Q101.593 929.676 101.558 928.781Q101.523 927.886 101.533 926.991Q101.542 926.095 101.596 925.201Q101.65 924.308 101.749 923.418Q101.847 922.528 101.99 921.644Q102.132 920.76 102.319 919.884Q102.506 919.008 102.736 918.143Q102.966 917.277 103.239 916.425Q103.511 915.572 103.826 914.734Q104.141 913.895 104.498 913.074Q104.854 912.252 105.251 911.45Q105.648 910.647 106.084 909.865Q106.52 909.083 106.995 908.324Q107.47 907.565 107.982 906.831Q108.494 906.096 109.042 905.388C115.087 897.588 123.706 893.194 133.382 891.934C133.635 882.262 136.483 873.21 142.316 865.415Q143.045 864.46 143.82 863.542Q144.595 862.625 145.415 861.747Q146.235 860.869 147.097 860.032Q147.96 859.196 148.862 858.404Q149.765 857.612 150.707 856.865Q151.648 856.119 152.625 855.421Q153.602 854.722 154.613 854.073Q155.623 853.424 156.665 852.826Q157.707 852.228 158.777 851.682Q159.847 851.136 160.943 850.645Q162.039 850.153 163.158 849.717Q164.277 849.28 165.416 848.9Q166.555 848.519 167.712 848.196Q168.869 847.873 170.04 847.607Q171.212 847.342 172.395 847.135Q173.578 846.929 174.77 846.781Q176.014 846.605 177.266 846.491Q178.517 846.377 179.773 846.325Q181.028 846.273 182.285 846.283Q183.541 846.294 184.796 846.366Q186.05 846.439 187.3 846.574Q188.549 846.709 189.79 846.906Q191.031 847.102 192.261 847.36Q193.491 847.618 194.707 847.937Q195.922 848.256 197.12 848.635Q198.318 849.013 199.496 849.451Q200.674 849.888 201.829 850.384Q202.984 850.88 204.113 851.432Q205.242 851.984 206.342 852.591Q207.442 853.199 208.511 853.86Q209.579 854.522 210.614 855.235Q211.648 855.949 212.646 856.713C217.36 849.266 222.381 846.501 230.496 843.543L230.576 659.043L215.633 659.05C213.485 659.043 209.874 659.322 208.271 657.714C208.602 654.179 226.937 632.114 230.555 626.643L230.552 559.366C213.403 559.162 77.9682 560.024 73.5046 558.064C72.8553 557.779 72.7001 557.882 72.5873 557.295C72.0809 554.658 76.3544 549.301 77.9333 547.229C87.8839 534.176 105.152 530.547 120.504 528.495Q120.011 526.556 119.672 524.585C117.51 511.401 121.331 496.119 129.043 485.295Q129.698 484.373 130.398 483.484Q131.098 482.595 131.842 481.742Q132.585 480.889 133.369 480.074Q134.154 479.259 134.978 478.484Q135.801 477.709 136.663 476.975Q137.524 476.241 138.42 475.551Q139.317 474.861 140.246 474.217Q141.176 473.572 142.136 472.974Q143.096 472.376 144.085 471.826Q145.074 471.277 146.088 470.776Q147.103 470.276 148.141 469.827Q149.179 469.378 150.238 468.981Q151.298 468.583 152.375 468.239Q153.453 467.895 154.546 467.604Q155.639 467.313 156.745 467.077Q157.851 466.841 158.968 466.66C174.005 464.168 186.621 469.07 198.755 477.614C199.56 476.015 200.468 474.336 201.768 473.079C207.085 467.936 222.828 470.348 230.03 470.435L230.01 359.147C230.007 339.606 231.108 319.456 229.74 299.98C227.368 309.472 225.081 318.892 220.858 327.78C215.702 338.634 208.444 349.163 196.655 353.278C187.399 356.51 176.123 355.828 167.362 351.403C153.13 344.215 144.304 327.227 139.675 312.68C129.179 279.699 130.358 236.582 146.546 205.537C152.064 194.953 161.102 184.991 172.827 181.456C181.45 178.856 191.937 179.42 199.913 183.769C219.436 194.416 224.099 218.109 229.976 237.474C230.495 223.038 230.124 208.474 230.13 194.023L230.098 112.561C221.795 112.524 209.946 113.852 203.711 107.219C197.393 100.5 199.359 86.2689 199.443 77.6105C196.878 77.6205 194.179 77.7375 191.69 77.0433C187.448 75.8607 183.41 72.8939 181.419 68.9206C179.948 65.985 179.55 62.4031 180.725 59.2954C182.383 54.9101 186.024 52.6098 190.061 50.769Z"/>
	<path fill="#F2F1E3" transform="scale(0.289062 0.289062)" d="M718.03 111.375Q733.394 111.59 748.76 111.65L748.743 470.519C689.449 469.567 630.067 470.217 570.761 470.22L272.473 470.285L272.504 400.833L272.947 112.695L291.394 112.879C291.314 123.909 290.068 207.3 292.762 210.819C293.575 211.88 294.838 212.346 296.106 212.481C306.756 213.619 324.739 212.577 336.104 212.577L423.127 212.602L700.597 212.573C703.872 212.569 714.537 213.435 716.611 211.707C719.494 202.292 718.084 181.466 718.076 170.95L718.03 111.375Z"/>
	<path fill="#291725" transform="scale(0.289062 0.289062)" d="M672.682 239.14Q674.633 239.043 676.586 239.003C679.136 238.955 682.157 238.884 684.028 240.944C685.539 242.607 685.497 245.186 685.611 247.303C686.661 266.848 685.688 286.931 685.657 306.527L685.691 419.587C689.918 419.523 696.873 418.5 700.214 421.485C702.519 423.544 702.583 426.372 702.616 429.245C702.655 432.626 702.598 437.126 699.909 439.592C698.525 440.862 696.904 440.986 695.131 441.119C680.763 442.192 665.63 441.27 651.182 441.233L565.868 441.159C561.002 441.244 543.731 442.966 540.155 439.69C538.068 437.778 537.172 433.932 537.037 431.228C536.881 428.109 537.712 424.593 540.004 422.339C543.806 418.602 548.281 419.218 553.195 419.246L553.13 301.852L553.083 265.149C553.074 258.906 552.733 252.45 553.157 246.229C553.277 244.481 553.509 242.714 554.738 241.37C556.04 239.945 557.685 239.704 559.524 239.532C572.475 238.323 586.354 239.272 599.402 239.301Q636.042 239.433 672.682 239.14Z"/>
	<path fill="#448B69" transform="scale(0.289062 0.289062)" d="M558.314 243.909C573.031 243.445 587.848 243.757 602.574 243.757L680.676 243.776C681.671 264.701 680.907 285.971 680.866 306.925L680.782 419.667L673.026 419.569C672.366 395.938 672.712 372.25 672.743 348.611L672.729 341.206C637.47 341.062 602.193 341.472 566.937 340.994L566.944 419.644L558.172 419.723L558.178 301.808C558.207 282.548 557.596 263.151 558.314 243.909Z"/>
	<path fill="#291725" transform="scale(0.289062 0.289062)" d="M658.968 252.894C662.885 252.719 667.922 251.962 671.487 253.857C672.164 255.548 672.342 257.128 672.461 258.929C673.335 272.188 672.462 285.953 672.478 299.268C672.49 308.395 673.542 318.439 672.49 327.448C672.297 329.104 672.072 330.113 670.964 331.372C658.669 332.269 646.062 331.566 633.717 331.516C616.285 331.444 598.838 331.74 581.406 331.898Q574.368 331.958 567.331 331.859C566.518 321.567 566.941 311.054 566.924 300.727Q566.771 276.908 567.029 253.091C576.622 252.512 586.575 253.059 596.205 253.07Q627.587 253.234 658.968 252.894Z"/>
	<path fill="#DDE2A3" transform="scale(0.289062 0.289062)" d="M646.33 257.584C653.387 257.871 660.5 257.716 667.564 257.722L667.57 298.658C658.724 308.365 649.165 317.52 639.976 326.909L600.266 326.954L578.308 326.991C585.55 319.19 593.453 311.82 600.954 304.257Q623.996 281.265 646.33 257.584Z"/>
	<path fill="#DDE2A3" transform="scale(0.289062 0.289062)" d="M571.595 257.685L639.898 257.77C628.548 269.893 616.648 281.556 604.924 293.317C593.913 304.57 582.095 315.182 571.654 326.961Q571.841 292.323 571.595 257.685Z"/>
	<path fill="#DDE2A3" transform="scale(0.289062 0.289062)" d="M666.841 306.231C668.564 308.098 667.527 323.536 667.504 326.974L648.191 326.943L647.857 326.671L647.815 325.736C653.382 318.765 660.544 312.58 666.841 306.231Z"/>
	<path fill="#DDE2A3" transform="scale(0.289062 0.289062)" d="M647.098 345.563L667.637 345.634L667.706 390.48C657.327 399.866 647.951 410.247 637.355 419.453L595.312 419.4L573.616 419.455C581.955 410.107 591.285 401.4 600.169 392.573Q623.786 369.22 647.098 345.563Z"/>
	<path fill="#DDE2A3" transform="scale(0.289062 0.289062)" d="M624.267 345.387L640.771 345.185L579.769 406.244L571.634 414.881C571.175 391.814 571.681 368.707 571.603 345.633L624.267 345.387Z"/>
	<path fill="#448B69" transform="scale(0.289062 0.289062)" d="M543.264 424.471L648.963 424.39L678.509 424.411C684.338 424.415 690.605 423.947 696.353 424.883C696.751 425.338 697.11 425.736 697.341 426.305C698.411 428.938 697.744 433.868 696.756 436.459C672.842 437.104 648.918 436.667 625 436.598L542.511 436.417C542.491 432.392 542.364 428.423 543.264 424.471Z"/>
	<path fill="#DDE2A3" transform="scale(0.289062 0.289062)" d="M667.369 396.822C668.591 403.803 667.656 412.477 667.633 419.645L645.942 419.521L645.898 418.93C648.504 414.218 662.496 401.703 667.369 396.822Z"/>
	<path fill="#291725" transform="scale(0.289062 0.289062)" d="M334.247 239.079C347.806 239.033 456.519 238.255 459.535 239.453C460.122 239.685 460.587 240.15 461.113 240.498C463.922 250.727 462.449 286.186 462.452 298.671L462.48 419.313C466.239 419.255 473.76 418.39 476.885 420.882C478.815 422.421 479.36 425.242 479.467 427.567C479.647 431.511 478.522 436.668 475.581 439.444C472.667 442.195 463.148 440.919 459.219 440.844L367.908 440.839C352.816 440.843 337.25 441.654 322.204 440.78C320.65 440.689 319.397 440.641 318.075 439.742C316.193 438.461 315.586 436.216 315.374 434.073C315.023 430.542 314.691 424.88 317.214 422.098C320.231 418.771 326.021 419.368 330.073 419.369C330.792 373.188 330.095 326.943 330.232 280.754C330.255 272.914 328.997 247.233 330.709 241.286C332.034 239.783 332.421 239.688 334.247 239.079Z"/>
	<path fill="#448B69" transform="scale(0.289062 0.289062)" d="M335.02 243.79L457.411 243.911L456.923 419.326L448.397 419.247C447.823 395.901 448.675 372.442 448.725 349.083L448.608 341.224C428.741 340.771 408.778 341.172 388.903 341.165C373.715 341.16 358.449 340.663 343.272 340.987C342.212 366.967 343.141 393.372 343.183 419.39L335 419.296L335.02 243.79Z"/>
	<path fill="#291725" transform="scale(0.289062 0.289062)" d="M343.85 252.594L410.299 252.701C422.119 252.686 435.718 251.243 447.265 253.555L447.021 254.635L447.053 254.652L448.133 253.992C449.818 259.67 448.34 320.956 448.077 331.138C436.074 331.308 348.554 332.595 344.219 330.978C342.386 324.405 342.333 260.323 343.85 252.594Z"/>
	<path fill="#DDE2A3" transform="scale(0.289062 0.289062)" d="M425.923 257.654L443.652 257.745Q443.63 279.414 443.347 301.081C435.08 309.896 425.576 317.997 416.825 326.376Q394.901 327.024 372.969 326.835L354.727 326.89C378.511 304.085 400.955 279.127 425.923 257.654Z"/>
	<path fill="#DDE2A3" transform="scale(0.289062 0.289062)" d="M348.158 257.664L418.687 257.647Q400.988 274.205 383.873 291.365C371.732 303.093 359.674 314.832 348.164 327.189L348.158 257.664Z"/>
	<path fill="#DDE2A3" transform="scale(0.289062 0.289062)" d="M442.385 308.151C444.304 310.712 443.163 322.883 443.142 326.659Q434.171 326.675 425.201 326.785L424.821 326.515C425.118 324.189 439.623 310.872 442.385 308.151Z"/>
	<path fill="#DDE2A3" transform="scale(0.289062 0.289062)" d="M426.044 345.631L443.472 345.614L443.543 392.54C434.366 401.519 425.023 411.425 415.046 419.455L369.274 419.334L349.31 419.486C364.569 406.032 378.97 391.671 393.66 377.607C404.531 367.199 416.232 357.026 426.044 345.631Z"/>
	<path fill="#DDE2A3" transform="scale(0.289062 0.289062)" d="M348.229 345.612L419.815 345.629Q402.336 363.002 384.431 379.935C372.518 391.733 360.148 403.063 348.227 414.858L348.229 345.612Z"/>
	<path fill="#448B69" transform="scale(0.289062 0.289062)" d="M320.915 424.526L321.861 424.501C353.708 423.824 385.613 424.295 417.467 424.334C433.826 424.353 453.856 423.213 469.628 424.614C471.716 424.799 472.678 424.773 474.237 426.273C475.227 429.511 473.802 432.507 472.601 435.483C469.342 437.323 336.972 436.201 320.296 436.168C320.315 432.25 320.526 428.424 320.915 424.526Z"/>
	<path fill="#DDE2A3" transform="scale(0.289062 0.289062)" d="M443.044 399.437C444.514 403.33 443.382 414.796 443.344 419.507L423.853 419.541L423.461 419.138C423.792 416.942 440.254 402.119 443.044 399.437Z"/>
	<path fill="#F2F1E3" transform="scale(0.289062 0.289062)" d="M813.988 119.627C838.24 126.539 862.249 134.595 886.343 142.07L1014.95 181.829C1015.64 214.159 1015.02 246.654 1015.02 278.997L1014.88 464.504C1003.35 464.523 978.733 463.246 968.472 464.899L968.896 465.818L967.987 465.372C965.414 473.176 966.902 531.915 966.911 544.855C952.437 547.183 938.095 550.385 923.641 552.86L891.439 558.508C885.169 559.628 877.721 560.297 871.826 562.711C871.002 564.033 870.895 565.046 870.82 566.582C869.853 586.221 870.701 606.374 870.656 626.073L870.424 756.123C874.782 756.693 880.34 757.995 884.656 757.322C893.347 755.965 902.682 752.184 911.193 749.776Q947.61 739.74 983.641 728.395C983.75 724.186 984.243 719.488 983.686 715.329C983.417 713.321 982.877 711.326 981.093 710.152C976.988 707.451 967.174 710.223 962.765 711.203L962.716 550.451C970.637 549.457 978.725 548.1 986.342 545.686L986.297 526.339L986.44 469.361C996.596 469.383 1006.87 469.718 1017 469.056C1020.69 471.644 1030.42 478.591 1031.64 482.609C1020.72 482.525 1009.75 482.223 998.837 482.654C998.639 486.312 998.324 490.046 998.277 493.703C998.253 495.6 998.794 497.718 1000.27 499.008C1001.81 500.35 1004.56 499.991 1006.48 499.976C1007.21 507.768 1015.21 550.789 1014.41 553.477C1013.91 555.166 1011.16 556.235 1010.73 558.523C1010.16 561.519 1010.06 568.955 1011.64 571.429C1012.9 571.947 1014.39 572.388 1015.32 573.422C1016.55 574.795 1016.33 726.249 1015.83 744.513C994.586 748.729 973.363 755.19 952.45 760.872C925.774 768.119 899.057 774.985 872.496 782.666C853.151 788.26 833.211 792.317 814.173 798.89L813.86 586.238L813.769 259.229C813.75 212.704 814.499 166.144 813.988 119.627Z"/>
	<path fill="#291725" transform="scale(0.289062 0.289062)" d="M865.703 234.233C874.285 234.817 899.266 242.92 908.871 245.444L944.945 254.824C951.823 256.601 959.146 258.009 965.753 260.63C966.511 267.102 966.096 273.837 966.061 280.348L966.006 312.015L966.255 424.482C967.52 424.925 968.862 425.36 970.015 426.053C972.475 427.532 974.146 430.448 974.814 433.178C975.297 435.147 975.025 437.186 973.911 438.894C972.275 441.403 969.79 442.368 966.994 443.01Q935.378 443.022 903.764 443.373C892.136 443.533 879.591 444.77 868.103 443.503C865.872 443.257 863.814 442.599 862.097 441.102C860.327 439.557 859.461 437.341 859.439 435.018C859.4 430.811 861.054 428.576 863.806 425.724L863.924 298.05L863.927 258.988C863.929 252.355 863.467 245.333 864.109 238.746C864.291 236.878 864.647 235.781 865.703 234.233Z"/>
	<path fill="#DDE2A3" transform="scale(0.289062 0.289062)" d="M869.47 240.42Q889.123 245.484 908.709 250.8L908.688 330.338Q889.056 327.348 869.349 324.901L869.47 240.42Z"/>
	<path fill="#DDE2A3" transform="scale(0.289062 0.289062)" d="M869.356 340.534L908.759 345.904L908.651 425.016L869.351 425.139L869.356 340.534Z"/>
	<path fill="#DDE2A3" transform="scale(0.289062 0.289062)" d="M924.598 255.066C936.651 257.379 948.759 261.238 960.674 264.298C960.941 288.944 960.665 313.622 960.643 338.272C948.603 336.603 936.522 335.164 924.464 333.63L924.598 255.066Z"/>
	<path fill="#DDE2A3" transform="scale(0.289062 0.289062)" d="M924.448 349.786Q942.609 351.611 960.712 353.949C960.969 377.636 960.757 401.347 960.739 425.036L924.451 425.101L924.448 349.786Z"/>
	<path fill="#777F61" transform="scale(0.289062 0.289062)" d="M913.834 251.999C915.381 252.345 916.9 252.76 918.426 253.187C919.711 254.744 919.488 256.731 919.568 258.718C920.287 276.59 919.458 294.825 919.434 312.74L919.315 425.162C917.699 425.223 916.415 425.299 914.866 424.712C914.016 423.58 913.548 422.67 913.433 421.232C913.171 417.956 913.827 414.443 913.796 411.111L913.769 370.04Q913.46 311.02 913.834 251.999Z"/>
	<path fill="#448B69" transform="scale(0.289062 0.289062)" d="M868.557 429.75C890.936 429.988 913.331 429.775 935.712 429.745C944.055 429.733 953.286 428.699 961.497 429.53C963.917 429.774 967.321 430.49 969.138 432.25C970.35 433.424 970.527 434.243 970.63 435.855C969.02 437.702 968.114 438.034 965.781 438.406L896.109 438.784C887.937 438.775 879.064 439.728 871.007 438.946C868.398 438.693 866.425 438.225 864.722 436.153C864.31 434.668 864.179 433.074 865.058 431.686C865.991 430.213 867.015 430.193 868.557 429.75Z"/>
	<path fill="#448B69" transform="scale(0.289062 0.289062)" d="M869.139 329.973C881.531 331.291 896.049 332.465 907.92 335.956C909.103 337.34 908.9 339.323 908.959 341.061C897.899 340.249 880.534 338.496 870.252 335.377C869.046 333.677 869.265 332.006 869.139 329.973Z"/>
	<path fill="#448B69" transform="scale(0.289062 0.289062)" d="M924.196 338.206C935.988 340.311 948.44 340.623 960.006 343.625C961.133 345.192 960.915 347.195 960.943 349.049C949.996 347.861 935.378 347.521 924.97 344.719C923.89 342.695 924.175 340.442 924.196 338.206Z"/>
	<path fill="#5EB57B" transform="scale(0.289062 0.289062)" d="M681.783 77.8315L706.173 77.6452C706.147 87.0015 704.954 101.131 706.535 110.145C708.495 111.368 710.819 111.284 713.07 111.459L713.018 207.477L327.812 207.515L296.793 207.463L296.307 77.9386L439.936 78.0167L681.783 77.8315Z"/>
	<path fill="#291725" transform="scale(0.289062 0.289062)" d="M314.581 95.598C337.098 95.1946 359.706 95.6148 382.23 95.6146L519.663 95.636L624.393 95.6767C645.387 95.6525 666.469 95.2008 687.448 95.7913C688.915 96.6867 689.834 97.749 690.212 99.5147C691.609 106.035 690.513 126.622 690.516 134.239L690.517 169.668C690.517 175.834 690.909 182.252 690.369 188.384C690.223 190.036 689.705 191.276 688.864 192.686C687.693 193.041 686.651 193.24 685.43 193.294C674.418 193.787 663.197 193.32 652.164 193.273L599.053 193.296L422.468 193.351C409.72 193.345 319.884 194.346 315.611 192.853C315.268 192.733 315.071 192.367 314.801 192.124C314.006 190.088 313.707 188.095 313.595 185.93C313.096 176.324 313.252 99.1353 314.581 95.598Z"/>
	<path fill="#F2F1E3" transform="scale(0.289062 0.289062)" d="M318.796 100.64L685.523 100.731L685.187 188.124C644.724 189.085 604.049 188.2 563.558 188.209L318.826 188.19L318.796 100.64Z"/>
	<path fill="#291725" transform="scale(0.289062 0.289062)" d="M609.815 122.727C616.303 122.332 623.728 121.483 629.512 125.162C637.87 130.478 630.864 137.799 630.726 142.191C630.69 143.35 638.329 148.671 639.073 152.798C639.802 156.843 637.532 162.048 635.318 165.365C628.202 172.326 618.381 170.993 609.226 170.958C611.656 160.843 610.973 133.567 609.815 122.727Z"/>
	<path fill="#F2F1E3" transform="scale(0.289062 0.289062)" d="M616.874 146.331C620.427 146.41 624.036 146.376 627.258 148.103C629.338 149.218 631.1 150.838 631.652 153.208C632.406 156.449 630.95 159.812 629.173 162.433C624.945 165.344 621.795 165.27 616.854 165.297L616.874 146.331Z"/>
	<path fill="#F2F1E3" transform="scale(0.289062 0.289062)" d="M617.004 127.182C618.875 127.645 620.937 128.054 622.674 128.904C624.407 129.752 626.202 131.261 626.778 133.17C627.495 135.547 626.49 137.826 625.376 139.879C624.004 140.472 622.333 141.089 620.857 141.307C619.355 141.527 618.71 141.03 617.58 140.152C616.007 136.569 616.915 131.071 617.004 127.182Z"/>
	<path fill="#291725" transform="scale(0.289062 0.289062)" d="M370.956 122.758C375.698 122.546 380.828 122.471 385.504 123.315C389.642 124.062 394.146 125.818 396.477 129.52C398.223 132.294 398.371 135.71 397.474 138.804C395.88 144.306 392.662 146.523 387.893 149.047C392.719 155.865 397.875 165.677 404.424 170.765C402.172 171.048 399.268 171.71 397.036 171.306C394.723 170.888 393.883 168.972 392.702 167.207C390.018 163.042 384.38 151.978 379.968 150.462C379.849 150.572 379.713 150.665 379.613 150.791C376.773 154.343 379.266 166.351 379.961 170.712L379.129 171.196C376.255 171.236 373.128 171.579 370.366 170.709C370.799 169.696 371.25 168.668 371.571 167.612C372.73 163.798 372.192 127.067 370.868 124.752C370.746 124.539 370.604 124.337 370.472 124.129L370.956 122.758Z"/>
	<path fill="#F2F1E3" transform="scale(0.289062 0.289062)" d="M378.557 128.182C382.407 128.399 385.664 128.667 388.805 131.22C390.342 132.469 391.459 134.044 391.545 136.074C391.666 138.939 390.124 140.773 388.233 142.71C385.197 144.263 381.753 145.28 378.541 146.439L378.557 128.182Z"/>
	<path fill="#291725" transform="scale(0.289062 0.289062)" d="M465.434 122.644C467.419 122.555 472.724 121.985 474.214 123.157C472.791 129.399 473.608 137.265 473.623 143.716Q485.587 143.773 497.546 143.451C497.595 139.098 497.801 134.637 497.553 130.294C497.425 128.057 496.679 126.027 496.842 123.773C499.041 122.241 501.745 122.639 504.332 122.869C506.108 126.939 501.378 165.082 505.179 169.777C505.323 169.955 505.483 170.119 505.635 170.291L504.263 170.914C501.809 171.049 499.36 171.383 496.989 170.617L496.504 169.473C498.822 164.442 497.542 155.042 497.436 149.398L473.572 149.436C473.564 154.728 472.981 160.839 473.674 166.063C473.921 167.927 475.159 168.958 475.255 170.428C472.377 171.336 469.07 171.011 466.072 171.007C467.313 163.603 468.265 127.858 465.434 122.644Z"/>
	<path fill="#291725" transform="scale(0.289062 0.289062)" d="M530.652 122.403C535.083 122.349 539.714 122.026 544.122 122.388C548.224 122.724 553.3 124.948 555.893 128.163C558.013 130.792 558.755 134.135 558.222 137.445C557.145 144.133 551.132 148.777 544.75 150.049C542.934 150.412 540.411 150.309 538.892 151.345L538.635 153.006C538.592 158.024 537.572 165.288 539.824 169.813C539.907 169.979 539.995 170.142 540.081 170.307C539.8 170.433 539.38 170.643 539.061 170.729C536.963 171.296 532.774 171.34 530.814 170.375C531.056 169.84 531.28 169.307 531.459 168.745C532.65 165.019 532.228 131.891 531.787 126.578C531.663 125.077 531.31 123.765 530.652 122.403Z"/>
	<path fill="#F2F1E3" transform="scale(0.289062 0.289062)" d="M538.716 127.785C541.771 128.042 545.156 128.397 547.834 129.986C549.59 131.029 551.102 132.401 551.577 134.458C552.219 137.237 550.756 139.838 549.24 142.03C548.425 142.601 547.575 143.067 546.693 143.524C544.32 144.752 542.866 145.571 540.163 144.701C537.3 141.317 538.678 132.312 538.716 127.785Z"/>
	<path fill="#291725" transform="scale(0.289062 0.289062)" d="M565.558 122.689C568.166 122.533 572.436 121.956 574.677 123.267Q573.887 126.455 573.7 129.734C573.353 135.536 572.554 159.124 576.202 162.917C577.916 164.699 580.624 165.341 583.025 165.284C585.379 165.229 587.51 164.277 589.05 162.483C594.43 156.214 592.585 131.128 591.904 122.727C594.181 122.565 596.44 122.214 598.658 122.88C599.695 124.509 599.177 125.527 598.931 127.402C598.784 137.54 600.845 151.816 598.079 161.296C596.975 165.079 594.712 168.183 591.159 169.987C586.875 172.161 580.662 172.487 576.191 170.733C559.127 164.038 571.648 135.726 565.787 123.145C565.715 122.991 565.634 122.841 565.558 122.689Z"/>
	<path fill="#291725" transform="scale(0.289062 0.289062)" d="M440.157 122.055C444.328 121.47 449.083 121.739 452.846 123.825C454.179 124.565 454.464 125.141 454.808 126.566C454.015 128.403 453.016 129.109 451.414 130.259Q450.237 129.869 449.055 129.497C445.913 128.511 442.079 126.96 438.971 128.742C437.292 129.705 436.037 130.633 435.465 132.519C436.418 138.771 446.929 142.283 451.441 146.009C454.799 148.782 457.247 152.245 457.494 156.709C457.693 160.314 456.201 164.615 453.759 167.288C450.068 171.327 444.784 171.733 439.692 171.875C435.865 171.275 432.12 170.037 429.555 166.971C427.992 165.103 427.265 163.507 427.473 161.077C428.207 159.547 428.792 159.139 430.16 158.246C433.017 158.149 437.351 163.884 440.799 165.082C442.387 165.634 444.199 165.807 445.72 164.966C447.75 163.844 449.365 161.193 449.921 159C452.732 147.918 434.22 147.73 430.173 139.337C428.837 136.565 428.833 132.588 430.055 129.78C431.914 125.51 436.067 123.572 440.157 122.055Z"/>
	<path fill="#291725" transform="scale(0.289062 0.289062)" d="M349.438 122.658C351.864 122.581 357.719 121.865 359.579 123.35C359.138 124.071 358.763 124.804 358.451 125.593C357.124 128.954 357.532 161.059 358.187 166.794C358.357 168.282 358.864 169.625 359.503 170.974C356.623 171.342 353.174 171.599 350.344 170.944C350.723 169.415 351.084 167.829 351.208 166.256C351.754 159.354 352.351 131.901 351.06 125.512C350.834 124.396 350.16 123.505 349.438 122.658Z"/>
	<path fill="#291725" transform="scale(0.289062 0.289062)" d="M410.683 122.764C412.879 122.615 415.147 122.236 417.268 122.935C418.212 123.972 418.57 124.382 418.744 125.808C419.123 128.9 418.053 132.482 417.943 135.632C417.728 141.821 417.244 163.642 418.864 168.546C419.109 169.289 419.248 169.762 419.307 170.529L417.974 171.022C414.93 171.064 411.521 171.414 408.656 170.303C409.568 169.738 410.324 169.152 411.12 168.433C411.761 162.882 412.507 128.515 410.763 124.801C410.326 123.87 410.507 123.754 410.683 122.764Z"/>
	<path fill="#448B69" transform="scale(0.289062 0.289062)" d="M638.661 658.917L758.828 658.879L758.854 832.682C758.827 860.855 759.189 889.096 758.612 917.261Q698.416 917.711 638.219 917.315L638.661 658.917Z"/>
	<path fill="#291725" transform="scale(0.289062 0.289062)" d="M652.574 666.703C661.962 666.662 743.437 665.776 746.625 667.576C747.358 667.989 747.801 669.311 748.029 670.1C749.306 674.53 748.47 705.797 748.477 712.912L748.5 776.379C748.496 787.842 748.827 799.432 748.355 810.88C748.263 813.127 748.008 815.006 746.987 817.057C734.84 816.976 656.417 818.197 651.511 816.036C650.287 813.573 650.098 810.772 650.001 808.057C648.937 778.47 650.028 748.513 649.975 718.877L649.853 686.792C649.832 681.482 649.322 675.446 650.094 670.201C650.393 668.169 651.042 667.864 652.574 666.703Z"/>
	<path fill="#AF8E5D" transform="scale(0.289062 0.289062)" d="M654.695 670.945C684.129 670.389 713.671 670.923 743.118 670.86C744.882 691.863 743.7 713.733 743.673 734.816C743.64 760.572 744.438 786.507 743.534 812.233Q699.08 811.957 654.626 812.226C653.745 791.192 654.617 769.76 654.674 748.699C654.744 722.799 654.165 696.836 654.695 670.945Z"/>
	<path fill="#291725" transform="scale(0.289062 0.289062)" d="M659.877 674.775C675.35 674.445 690.873 674.699 706.352 674.726C717.596 674.745 729.035 674.3 740.236 675.168C740.892 682.716 740.486 690.516 740.468 698.093L740.481 734.733L740.521 781.075C740.526 789.99 740.88 799.065 740.309 807.958L739.853 808.102L739.838 808.672L739.351 809.097C712.334 808.767 685.22 809.688 658.223 808.861C656.971 784.201 658.269 758.669 658.296 733.929L658.26 697.061C658.253 691.073 657.841 684.767 658.323 678.809C658.492 676.723 658.667 676.414 659.877 674.775Z"/>
	<path fill="#DDE2A3" transform="scale(0.289062 0.289062)" d="M662.9 756.252L708.688 716.496C717.394 708.89 726.11 700.092 735.751 693.731L735.852 766.393C735.883 779.574 736.305 792.887 735.848 806.053C733.671 800.726 727.227 783.04 723.624 780.052C722.243 777.591 720.32 776.189 718.14 774.499C721.142 769.478 721.673 765.463 721.044 759.672C720.048 755.32 718.753 751.473 714.731 748.959C710.893 746.561 706.066 746.412 701.675 746.507C696.996 749.519 693.546 753.309 692.197 758.887C690.972 763.952 692.137 767.829 693.44 772.67C681.522 780.524 674.903 789.477 671.917 803.729C671.881 803.9 671.85 804.071 671.816 804.241C668.816 804.282 665.814 804.358 662.815 804.258L662.9 756.252Z"/>
	<path fill="#DDE2A3" transform="scale(0.289062 0.289062)" d="M662.895 679.734Q699.407 679.637 735.918 679.911L735.994 688.993C724.051 696.41 713.703 706.394 703.133 715.607L663.025 750.723L662.895 679.734Z"/>
	<path fill="#DDE2A3" transform="scale(0.289062 0.289062)" d="M698.158 756.423C706.73 756.502 706.216 757.119 712.321 762.735C712.873 762.358 713.424 761.993 713.987 761.633C715.535 762.684 715.874 764.251 716.475 765.929C716.873 767.562 715.735 769.751 714.856 771.185C712.734 774.644 708.754 775.696 705.082 776.517C702.541 776.613 699.224 777.569 696.976 776.304L697.101 775.623C698.176 775.051 698.916 774.477 699.79 773.632C699.373 771.061 697.438 768.788 696.366 766.43C694.952 763.321 697.071 759.437 698.158 756.423Z"/>
	<path fill="#F2F1E3" transform="scale(0.289062 0.289062)" d="M703.376 780.903L710.932 780.504C708.77 787.682 707.955 796.015 705.31 802.912C704.691 804.526 704.158 804.491 702.704 805.153L698.774 804.273C696.646 797.407 696.182 789.004 695.649 781.818L696.144 781.392C696.754 781.757 697.431 782.202 698.104 782.431C699.657 782.96 701.927 781.568 703.376 780.903Z"/>
	<path fill="#31725E" transform="scale(0.289062 0.289062)" d="M687.959 782.698L689.353 781.759C692.255 784.056 693.339 800.423 694.42 804.788C693.048 804.715 691.801 804.592 690.454 804.276C686.836 799.8 689.97 792.918 687.095 787.713C685.78 791.026 685.469 803.974 683.515 804.574C683.11 804.699 682.191 804.768 681.748 804.811C679.974 804.693 678.217 804.639 676.488 804.193C676.478 803.952 676.46 803.711 676.46 803.47C676.453 798.493 684.329 786.245 687.959 782.698Z"/>
	<path fill="#448B69" transform="scale(0.289062 0.289062)" d="M709.811 804.676C710.766 800.135 713.917 782.879 717.071 780.533C719.189 782.768 718.808 793.303 718.782 796.665C718.817 798.9 718.743 801.199 718.998 803.419L718.484 804.233C715.828 805.148 712.599 804.727 709.811 804.676Z"/>
	<path fill="#2F5A5D" transform="scale(0.289062 0.289062)" d="M720.884 783.563C723.535 788.183 731.147 799.888 730.461 804.991C728.447 805.01 726.502 805.139 724.502 805.379C723.891 805.47 723.421 805.562 722.786 805.544C721.087 805.496 720.146 804.506 718.998 803.419C718.743 801.199 718.817 798.9 718.782 796.665C720.386 796.843 722.55 796.83 723.937 797.641L720.884 783.563Z"/>
	<path fill="#291725" transform="scale(0.289062 0.289062)" d="M718.782 796.665C720.386 796.843 722.55 796.83 723.937 797.641L724.502 805.379C723.891 805.47 723.421 805.562 722.786 805.544C721.087 805.496 720.146 804.506 718.998 803.419C718.743 801.199 718.817 798.9 718.782 796.665Z"/>
	<path fill="#291725" transform="scale(0.289062 0.289062)" d="M653.498 829.61C665.24 829.541 736.633 827.878 742.776 830.336C743.406 831.914 743.636 833.312 743.774 834.989C744.384 842.392 743.718 850.087 743.739 857.528C743.764 866.314 744.799 875.99 743.637 884.658C743.42 886.27 742.783 887.161 741.749 888.377Q717.913 887.875 694.072 887.979C682.892 888.017 671.578 888.429 660.412 888.002C658.89 887.944 653.486 887.905 652.458 886.793C650.889 885.096 650.743 881.119 650.68 878.842C650.51 872.62 650.918 866.346 650.917 860.115C650.916 851.649 649.626 841.079 651.397 832.893C651.691 831.533 652.561 830.587 653.498 829.61Z"/>
	<path fill="#AF8E5D" transform="scale(0.289062 0.289062)" d="M655.91 834.061L739.305 834.017L739.165 883.197Q697.444 882.484 655.718 882.838C655.697 866.628 655.185 850.248 655.91 834.061Z"/>
	<path fill="#291725" transform="scale(0.289062 0.289062)" d="M722.62 839.253C726.568 839.142 730.5 839.299 734.444 839.44C734.434 845.726 735.745 872.034 733.304 875.392C725.295 878.527 685.243 876.791 674.092 876.75C670.015 876.809 665.996 876.739 661.926 876.484C661.344 864.326 661.585 851.794 661.95 839.618C681.925 838.234 702.558 839.478 722.62 839.253Z"/>
	<path fill="#448B69" transform="scale(0.289062 0.289062)" d="M666.855 844.652L729.393 844.723C729.449 853.381 730.475 863.305 729.135 871.811Q698.012 871.479 666.889 871.808L666.855 844.652Z"/>
	<path fill="#5EB57B" transform="scale(0.289062 0.289062)" d="M204.628 475.834C226.195 474.777 248.297 475.793 269.916 475.833L390.954 475.825L785.894 475.787L785.853 507.652C785.84 513.204 786.409 519.432 785.37 524.855L215.336 524.496C212.397 516.094 204.229 487.383 203.823 479.264C203.763 478.059 204.173 476.929 204.628 475.834Z"/>
	<path fill="#448B69" transform="scale(0.289062 0.289062)" d="M262.831 658.911L282.966 658.958C283.024 708.848 282.14 758.917 283.126 808.786C299.844 809.69 317.047 808.817 333.824 808.796C348.548 808.777 363.807 809.676 378.469 808.748C380.337 808.63 381.287 808.697 382.835 807.542C384.295 803.663 383.273 674.486 383.287 658.984L399.323 658.955L399.097 769.25L399.15 917.736L262.412 917.568L262.831 658.911Z"/>
	<path fill="#291725" transform="scale(0.289062 0.289062)" d="M281.842 815.999Q315.168 816.532 348.498 816.467C358.154 816.491 368.375 815.778 377.969 816.481C379.807 816.616 380.978 816.803 382.418 817.945C383.878 823.643 383.685 887.442 383.052 895.372C382.872 897.63 382.416 898.405 380.676 899.866Q379.315 899.887 377.954 899.887L315.898 899.66C305.04 899.635 293.519 900.405 282.751 899.453C281.229 899.319 281.106 899.296 280.022 898.208C279.003 893.989 278.873 820.591 279.551 818.223C279.951 816.826 280.686 816.679 281.842 815.999Z"/>
	<path fill="#AF8E5D" transform="scale(0.289062 0.289062)" d="M285.345 821.13L378.02 821.332C378.028 829.79 379.027 892.097 377.333 894.583L284.32 894.408L284.38 822.059L285.345 821.13Z"/>
	<path fill="#291725" transform="scale(0.289062 0.289062)" d="M340.772 826.147C347.388 826.041 364.928 824.599 370.438 826.332C371.312 826.608 371.546 826.739 371.905 827.584C373.218 830.671 372.781 877.915 372.386 883.312C372.245 885.239 371.958 886.915 371.084 888.662C367.925 891.147 329.03 889.652 322.031 889.619C313.968 889.526 298.195 891.198 291.174 888.971L291.261 888.364L290.748 888.476C289.162 880.679 288.587 832.51 291.002 826.762C295.617 824.969 332.868 826.131 340.772 826.147Z"/>
	<path fill="#5EB57B" transform="scale(0.289062 0.289062)" d="M294.718 831.251C318.765 830.521 343.059 831.258 367.128 831.336L367.152 884.691L294.471 884.702Q294.431 857.976 294.718 831.251Z"/>
	<path fill="#F2F1E3" transform="scale(0.289062 0.289062)" d="M1041.34 833.634C1067.14 832.684 1091.93 834.847 1113.73 850.39C1117.19 852.858 1125.97 858.973 1126.66 863.104Q1122.66 862.32 1118.58 862.136Q1114.51 861.952 1110.45 862.372C1097.09 863.881 1084.22 871.649 1077.73 883.622C1075.78 887.234 1074.67 891.923 1072.09 895.086C1072.01 895.193 1071.91 895.295 1071.82 895.4C1068.7 893.169 1062.62 893.006 1058.88 893.154C1042.35 893.807 1035.27 899.668 1024.59 911.256C1022.65 913.358 1020.7 914.953 1018.23 916.398C1010.44 920.954 944.774 954.367 940.619 954.944C932.172 956.116 922.336 955.302 913.762 955.155C896.762 954.865 879.693 954.356 862.698 955.028C904.078 933.433 944.721 910.371 986.063 888.671L1031.07 865.196C1038.76 861.221 1047.67 857.555 1054.71 852.539C1056.23 851.459 1057.37 850.73 1057.66 848.887L1056.58 848.167C1047.1 848.163 1038.62 858.014 1029.65 860.007C1029.32 860.08 1028.99 860.14 1028.65 860.206C1028.34 860.728 1028.29 860.874 1027.76 861.321C1025.64 863.077 1021.45 864.519 1018.91 865.832L993.199 879.312Q944.653 904.814 896.493 931.036C889.076 935.047 856.53 954.075 852.062 954.849C842.009 956.59 825.219 955.098 814.293 955.056L732.682 955.082Q839.187 907.079 948.083 864.784L997.216 845.048C1005.44 841.728 1013.99 837.602 1022.53 835.227C1028.19 833.654 1035.4 834.078 1041.34 833.634Z"/>
	<path fill="#5EB57B" transform="scale(0.289062 0.289062)" d="M425.719 822.64C491.501 822.593 557.403 821.675 623.172 822.56L623.104 894.556L425.655 894.534L425.719 822.64Z"/>
	<path fill="#5EB57B" transform="scale(0.289062 0.289062)" d="M1014.61 765.897L1015.2 766.003C1016.5 768.187 1015.7 811.468 1015.7 817.765C991.201 825.071 967.078 835.254 943.093 844.187Q879.042 868.006 815.459 893.051L815.209 892.991C814.966 892.699 814.606 892.473 814.479 892.115C813.655 889.794 814.429 831.31 814.426 823.585C826.681 819.227 839.416 815.925 851.936 812.413L897.129 799.584L1014.61 765.897Z"/>
	<path fill="#B0AEB1" transform="scale(0.289062 0.289062)" d="M83.0916 959.042L1191.51 959.559C1192.01 960.353 1192.3 960.972 1192.48 961.906C1193.04 964.808 1193.01 967.479 1191.36 969.954C1181.99 971.256 1170.89 970.143 1161.38 970.122L1094.93 970.052L866.122 970.115L83.058 970.013L83.0916 959.042Z"/>
	<path fill="#5EB57B" transform="scale(0.289062 0.289062)" d="M1110.35 867.397C1112.84 867.106 1115.35 867.077 1117.85 867.136C1130.1 867.429 1142.35 873.516 1150.64 882.434C1155.36 887.522 1160.88 896.98 1160.65 904.174C1166.28 903.846 1171.85 902.546 1177.43 903.992C1184.77 905.897 1191.01 910.419 1194.87 916.981Q1195.22 917.572 1195.55 918.181Q1195.87 918.789 1196.16 919.412Q1196.45 920.036 1196.71 920.674Q1196.97 921.311 1197.2 921.961Q1197.43 922.61 1197.62 923.271Q1197.82 923.931 1197.98 924.6Q1198.14 925.269 1198.27 925.946Q1198.4 926.622 1198.5 927.304Q1198.59 927.986 1198.65 928.672Q1198.71 929.358 1198.74 930.046Q1198.76 930.734 1198.75 931.423Q1198.74 932.111 1198.7 932.799Q1198.66 933.486 1198.58 934.17Q1198.5 934.854 1198.39 935.534Q1198.28 936.213 1198.13 936.886Q1197.99 937.559 1197.81 938.224C1195.98 945.045 1191.14 951.078 1185.06 954.633L1105.47 954.614L1030.95 954.709C1030.69 953.978 1030.86 954.233 1030.36 953.664C1027.29 950.122 1023.94 945.906 1022.63 941.332C1020.45 933.797 1022.63 924.571 1026.27 917.839Q1026.72 917.01 1027.21 916.205Q1027.7 915.399 1028.22 914.619Q1028.75 913.84 1029.32 913.087Q1029.89 912.335 1030.49 911.612Q1031.09 910.889 1031.73 910.197Q1032.37 909.506 1033.05 908.847Q1033.72 908.188 1034.43 907.564Q1035.13 906.94 1035.87 906.352Q1036.6 905.764 1037.37 905.214Q1038.13 904.664 1038.92 904.153Q1039.71 903.642 1040.53 903.171Q1041.35 902.7 1042.19 902.271Q1043.02 901.842 1043.88 901.455Q1044.74 901.068 1045.62 900.725Q1046.5 900.382 1047.39 900.084Q1048.28 899.785 1049.19 899.532C1058.04 897.033 1067.26 897.785 1075.36 902.319C1078.66 898.261 1079.41 889.882 1082.86 884.475C1089.31 874.385 1099.04 869.914 1110.35 867.397Z"/>
	<path fill="#5EB57B" transform="scale(0.289062 0.289062)" d="M505.732 587.962L593.792 587.688C580.63 609.449 567.433 633.587 552.459 654.014C526.755 654.284 501.02 654.018 475.312 654.008L387.526 654.006C394.711 641.012 403.197 628.465 411.339 616.046C417.478 606.684 423.428 596.973 430.214 588.072L505.732 587.962Z"/>
	<path fill="#5EB57B" transform="scale(0.289062 0.289062)" d="M192.904 55.8576C221.309 55.2311 249.871 55.9424 278.294 55.9773L419.375 55.8148L814.395 55.7848C814.272 61.0028 815.504 66.5586 813.741 71.5326C812.146 72.8609 810.895 72.5507 808.906 72.6084L427.331 72.7025L271.385 72.676C247.405 72.6309 223.111 73.5239 199.165 72.7C196.11 72.5949 192.532 72.3615 189.738 71.0374C187.686 70.0649 186.236 67.7897 185.634 65.6553C185.016 63.4624 185.45 61.2447 186.719 59.3743C188.287 57.062 190.282 56.4168 192.904 55.8576Z"/>
	<path fill="#DDE2A3" transform="scale(0.289062 0.289062)" d="M593.685 658.975L622.123 658.974L622.138 707.637C612.163 718.699 600.81 728.843 590.19 739.296Q557.768 771.481 524.857 803.165L473.099 803.193L444.246 803.129C448.533 796.98 454.945 791.754 460.322 786.525Q475.446 771.745 490.758 757.159L593.685 658.975Z"/>
	<path fill="#448B69" transform="scale(0.289062 0.289062)" d="M425.569 658.921L440.713 658.975L440.603 801.406C439.907 801.896 439.166 802.387 438.537 802.962C437.342 804.053 437.099 804.526 437.041 806.122C438.385 807.605 439.545 807.523 441.464 807.758C449.777 808.775 458.549 808.279 466.918 808.286L509.063 808.279L583.888 808.188C596.048 808.156 608.338 808.51 620.477 808.053C622.209 807.987 624.224 808.05 625.605 806.974L625 806.584L625.787 806.579C628.024 798.542 626.446 785.878 626.503 777.249Q626.827 738.801 626.723 700.352C626.718 686.935 625.709 672.733 627.094 659.443C628.987 658.465 632.225 658.935 634.354 658.96L633.869 917.487C618.018 916.881 601.958 917.535 586.094 917.686L425.628 917.328L425.59 899.657L627.412 899.495C628.092 890.056 627.581 880.269 627.567 870.794L627.577 818.078Q526.533 818.585 425.493 817.726C424.891 764.818 425.481 711.838 425.569 658.921Z"/>
	<path fill="#5EB57B" transform="scale(0.289062 0.289062)" d="M188.694 185.201C191.882 185.352 194.988 186.711 197.734 188.258C210.276 195.324 217.695 211.401 221.474 224.631C230.83 257.392 230.92 300.18 213.77 330.525C208.472 339.898 201.901 346.861 191.33 349.742C185.816 349.956 181.823 348.725 177.376 345.47C162.669 334.708 156.64 311.706 153.856 294.439C149.041 264.578 152.544 221.722 170.942 196.7C175.556 190.424 180.912 186.389 188.694 185.201Z"/>
	<path fill="#291725" transform="scale(0.289062 0.289062)" d="M186.478 199.463C189.248 199.177 191.656 199.327 194.278 200.37C203.016 203.846 207.976 212.751 211.328 221.027C222.021 247.424 221.818 288.725 210.674 314.999C206.726 324.305 201.258 332.433 191.641 336.32C188.972 336.406 186.791 336.202 184.293 335.15C175.465 331.434 170.456 322.404 167.07 313.933C156.209 286.765 156.309 246.819 167.853 219.92C171.839 210.633 176.918 203.338 186.478 199.463Z"/>
	<path fill="#5EB57B" transform="scale(0.289062 0.289062)" d="M187.077 204.382C188.616 204.198 190.456 204.179 191.938 204.661C197.728 206.546 201.932 213.265 204.537 218.377C216.544 241.935 216.283 282.133 208.097 307.241C204.944 316.911 200.588 326.381 191.151 331.154C189.736 331.24 188.2 331.34 186.834 330.9C181.62 329.221 177.712 323.691 175.193 319.089C162.087 295.159 161.534 257.359 169.096 231.385C172.191 220.754 176.966 209.879 187.077 204.382Z"/>
	<path fill="#DDE2A3" transform="scale(0.289062 0.289062)" d="M445.558 658.945L586.989 658.934C579.333 665.527 572.221 673.053 564.874 680.027L518.361 724.087Q481.724 758.957 445.523 794.278L445.558 658.945Z"/>
	<path fill="#448B69" transform="scale(0.289062 0.289062)" d="M425.047 529.8C445.032 530.103 465.049 529.688 485.038 529.689L602.031 529.923C602.518 547.435 602.038 565.077 602.028 582.605C579.924 583.797 557.569 583.207 535.433 583.218L425.042 583.255L425.047 529.8Z"/>
	<path fill="#291725" transform="scale(0.289062 0.289062)" d="M556.944 539.194C562.246 539.126 585.144 537.783 588.272 540.319C589.72 541.492 590.058 543.997 590.196 545.731C590.421 548.539 589.994 551.425 590.003 554.244C590.017 559.165 591.78 567.078 588.239 571.065C580.636 573.36 556.669 571.967 547.539 571.945L473.456 571.784C464.804 571.728 456.098 572.233 447.471 572.08C445.215 572.04 442.326 571.809 440.749 569.961C437.38 566.01 439.314 545.697 439.453 539.606C453.32 538.908 467.397 539.337 481.287 539.314L556.944 539.194Z"/>
	<path fill="#DDE2A3" transform="scale(0.289062 0.289062)" d="M444.046 543.809L585.562 543.867L585.554 567.074L444.077 567.052C443.779 559.336 444.025 551.535 444.046 543.809Z"/>
	<path fill="#DDE2A3" transform="scale(0.289062 0.289062)" d="M377.409 659.301C378.203 660.107 378.268 660.408 378.399 661.579C379.164 668.431 378.509 676.031 378.56 682.983L378.655 733.828C368.118 745.27 356.428 756.117 345.268 766.973C342.121 770.034 338.629 772.864 335.647 776.076C333.641 778.236 331.352 781.375 331.504 784.406C337.76 783.865 370.158 747.671 377.852 741.558C378 741.439 378.152 741.325 378.302 741.208Q378.615 771.981 378.39 802.755L378.015 803.417C374.736 804.73 299.89 803.815 288.016 803.869L287.925 747.162C302.107 734.135 315.736 720.325 329.512 706.861C345.591 691.145 361.897 675.577 377.409 659.301Z"/>
	<path fill="#5EB57B" transform="scale(0.289062 0.289062)" d="M263.424 588.216L394.697 587.979C389.978 595.403 353.197 652.59 349.458 654.086L263.437 654.04C247.931 654.067 232.338 654.597 216.844 654.124C220.918 647.795 225.889 641.907 230.306 635.795C241.593 620.175 253.069 604.467 263.424 588.216Z"/>
	<path fill="#5EB57B" transform="scale(0.289062 0.289062)" d="M629.738 587.956C643.932 587.581 658.245 588.015 672.449 588.043L750.184 588.114C741.82 610.522 730.356 632.318 720.464 654.117L708.906 654.075L587.187 654.012C594.726 640.008 604.429 626.813 613.134 613.489C618.624 605.086 623.541 595.834 629.738 587.956Z"/>
	<path fill="#448B69" transform="scale(0.289062 0.289062)" d="M629.946 529.632C672.845 530.6 715.851 529.69 758.768 529.877L758.35 654.427Q743.16 654.29 727.969 654.371C726.889 654.331 726.84 654.329 725.996 653.659C727.295 649.102 730.069 644.367 732.063 640.028C736.18 631.073 755.344 591.674 754.731 584.899C751.146 581.777 643.741 583.164 629.918 583.155C629.027 565.499 629.503 547.313 629.946 529.632Z"/>
	<path fill="#291725" transform="scale(0.289062 0.289062)" d="M643.834 539.093C658.906 538.128 674.563 539.144 689.699 539.194C706.118 539.249 722.78 538.442 739.162 539.106C740.358 539.155 743.478 539.124 744.405 539.889C747.509 542.451 746.194 557.009 746.323 561.397C746.441 565.394 746.563 568.319 743.702 571.414C724.622 572.001 705.391 571.545 686.296 571.56C673.362 571.57 659.974 572.317 647.098 571.512C645.446 571.408 643.767 571.399 642.383 570.39C640.124 565.948 641.193 554.272 641.099 548.869C641.033 545.031 641.033 542.004 643.834 539.093Z"/>
	<path fill="#DDE2A3" transform="scale(0.289062 0.289062)" d="M646.133 543.838C677.825 543.271 709.619 543.926 741.329 543.804L741.363 566.763C709.6 567.285 677.793 566.874 646.021 567.032L646.133 543.838Z"/>
	<path fill="#5EB57B" transform="scale(0.289062 0.289062)" d="M1045.14 777.996C1053.39 777.14 1061.39 778.078 1069.03 781.452C1074.85 784.024 1084.56 790.545 1086.94 796.749C1096.21 793.884 1104.19 792.219 1113.82 794.773C1124.64 797.644 1134.49 804.581 1140.13 814.337C1145.42 823.483 1147.42 836.211 1144.59 846.457C1144.43 847.039 1144.23 847.614 1144.11 848.206C1143.81 849.702 1143.89 850.191 1144.79 851.39C1148.52 851.721 1152.6 850.396 1156.32 849.906C1165.51 848.696 1175.53 852.512 1182.73 858.107Q1183.61 858.8 1184.45 859.534Q1185.3 860.269 1186.1 861.044Q1186.91 861.818 1187.68 862.631Q1188.45 863.444 1189.18 864.293Q1189.91 865.142 1190.59 866.025Q1191.28 866.909 1191.92 867.824Q1192.57 868.74 1193.17 869.685Q1193.77 870.631 1194.32 871.604Q1194.87 872.578 1195.37 873.577Q1195.88 874.576 1196.33 875.598Q1196.79 876.62 1197.19 877.664Q1197.6 878.707 1197.95 879.768Q1198.31 880.83 1198.61 881.907Q1198.91 882.984 1199.16 884.075Q1199.41 885.166 1199.61 886.268Q1199.81 887.369 1199.95 888.479C1200.74 894.873 1200.81 906.905 1196.66 912.177C1196.59 911.763 1196.58 911.483 1196.44 911.102C1195.25 907.916 1190.65 904.848 1187.7 903.48C1187.5 903.281 1187.32 903.059 1187.11 902.881C1181.41 898.249 1171.94 898.1 1165.05 898.678C1161.1 888.054 1155.96 878.027 1146.22 871.564C1143.25 869.592 1139.26 868.246 1136.66 865.85C1130.58 860.246 1126.19 853.342 1119.54 848.153C1091.78 826.478 1054.26 826.376 1020.84 830.292Q1020.77 810.349 1020.93 790.408C1027.9 783.78 1035.94 780.348 1045.14 777.996Z"/>
	<path fill="#F2F1E3" transform="scale(0.289062 0.289062)" d="M164.817 470.989C176.533 469.151 189.97 477.232 199.146 483.574C201.346 492.849 207.231 523.111 212.919 528.257C215.966 531.014 226.323 529.837 230.404 529.827L230.37 553.868L145.312 553.939L79.1388 553.903Q79.6094 553.248 80.0998 552.608C91.5498 537.542 109.207 535.126 126.76 532.822C125.93 529.141 125.06 525.386 124.656 521.633C123.307 509.11 126.39 496.364 134.359 486.471C142.267 476.653 152.498 472.276 164.817 470.989Z"/>
	<path fill="#448B69" transform="scale(0.289062 0.289062)" d="M263.184 529.475L397.822 529.711C396.8 547.324 397.531 565.413 397.528 583.081C387.929 584.388 367.181 583.291 356.418 583.287L263.151 583.232L263.184 529.475Z"/>
	<path fill="#291725" transform="scale(0.289062 0.289062)" d="M278.104 539.54C288.614 539.222 378.639 538.745 383.154 540.286C384.408 542.127 384.754 544.014 384.982 546.19C385.508 551.21 386.246 567.64 383.384 571.22C361.559 572.265 339.307 571.417 317.44 571.429C308.097 571.434 285.797 572.657 277.813 570.792C277.246 570.004 276.927 569.395 276.713 568.433C275.465 562.809 275.107 544.09 278.104 539.54Z"/>
	<path fill="#DDE2A3" transform="scale(0.289062 0.289062)" d="M280.955 543.996C313.97 543.269 347.21 543.855 380.237 544.037L380.297 566.663L280.878 566.893Q280.83 555.444 280.955 543.996Z"/>
	<path fill="#5EB57B" transform="scale(0.289062 0.289062)" d="M229.89 848.906C231.461 852.466 230.385 891.413 230.517 898.059C217.555 903.387 204.105 907.809 190.92 912.586Q150.433 926.849 110.289 942.052C108.769 938.564 107.63 935.231 106.735 931.533C105.263 896.149 136.665 899.712 138.324 895.44C138.806 894.199 138.68 891.262 138.819 889.812C139.684 880.816 141.547 874.175 147.401 867.09C154.851 858.074 166.072 852.542 177.68 851.606C192.097 850.444 204.012 855.749 214.696 864.94C218.908 856.95 221.116 852.583 229.89 848.906Z"/>
	<path fill="#F2F1E3" transform="scale(0.289062 0.289062)" d="M611.425 922.334C632.506 921.691 653.752 922.154 674.847 922.157L795.367 922.055L747.853 942.856C740.279 946.19 726.149 953.752 718.457 954.947L534.987 954.506C549.931 947.683 565.417 941.753 580.568 935.372C590.781 931.071 600.968 925.948 611.425 922.334Z"/>
	<path fill="#F2F1E3" transform="scale(0.289062 0.289062)" d="M763.689 530.038L785.581 530.088L785.703 800.877L763.632 800.889L763.689 530.038Z"/>
	<path fill="#F2F1E3" transform="scale(0.289062 0.289062)" d="M790.795 475.882L808.68 476.424L809.294 800.904L790.691 800.942L790.795 475.882Z"/>
	<path fill="#F2F1E3" transform="scale(0.289062 0.289062)" d="M424.166 922.292C482.158 921.138 540.372 922.326 598.384 922.388Q578.099 931.281 557.638 939.761C546.047 944.566 534.26 949.121 522.997 954.659C504.651 955.237 486.158 954.76 467.796 954.776L348.498 954.634C360.677 948.703 373.568 943.752 386.033 938.397C398.638 932.982 411.28 926.946 424.166 922.292Z"/>
	<path fill="#DDE2A3" transform="scale(0.289062 0.289062)" d="M945.18 640.278L946.068 640.327C946.292 640.584 946.619 640.779 946.739 641.098C947.47 643.043 946.567 708.31 946.545 715.916C935.227 718.713 885.012 734.574 877.638 732.826C877.059 732.674 876.602 732.355 876.086 732.057C874.956 725.011 875.897 716.216 875.9 708.986L875.937 655.612C898.163 649.691 922.584 645.271 945.18 640.278Z"/>
	<path fill="#F2F1E3" transform="scale(0.289062 0.289062)" d="M241.754 922.64C259.698 921.751 278.131 922.635 296.129 922.611L409.963 922.747C401.783 925.647 393.759 929.606 385.787 933.065L341.848 952.145C339.714 953.323 337.755 954.262 335.288 954.474C319.304 955.854 300.72 954.717 284.522 954.683L176.739 954.59C197.704 942.85 220.118 933.11 241.754 922.64Z"/>
	<path fill="#DDE2A3" transform="scale(0.289062 0.289062)" d="M942.262 554.68C943.792 554.421 944.967 554.117 946.461 554.731C947.766 561.352 946.786 569.779 946.8 576.642L946.913 625.431C924.819 629.532 902.578 634.643 880.679 639.713C879.22 640.049 877.92 640.486 876.432 640.071C875.16 632.849 876.019 624.048 875.987 616.674L875.78 566.009C883.981 565.204 892.232 563.383 900.352 561.964L942.262 554.68Z"/>
	<path fill="#F2F1E3" transform="scale(0.289062 0.289062)" d="M404.431 658.887L420.562 658.947L420.643 834.664L420.659 888.809C420.657 898.486 421.214 908.577 420.364 918.204L404.209 918.246L404.431 658.887Z"/>
	<path fill="#5EB57B" transform="scale(0.289062 0.289062)" d="M817.523 76.3708C823.6 78.914 830.341 80.5326 836.635 82.5255L871.977 93.9353L987.338 131.041L1022.6 141.994C1027.73 143.596 1033.93 144.847 1038.65 147.388C1040.31 150.005 1041.3 152.982 1041.29 156.112C1041.29 158.254 1040.63 160.385 1039.06 161.898C1037.28 163.616 1035.47 163.379 1033.14 163.254C1023.82 159.758 1013.8 157.315 1004.28 154.341L941.444 134.577C897.306 120.599 853.635 105.227 809.318 91.7799L809.342 78.7694C812.212 78.215 814.789 77.3918 817.523 76.3708Z"/>
	<path fill="#5EB57B" transform="scale(0.289062 0.289062)" d="M819.299 55.9597C830.391 58.5241 841.403 62.6732 852.241 66.2003L917.907 87.9969L1004.59 116.206C1018.4 120.699 1032.47 124.84 1046.11 129.82C1048.08 130.541 1049.99 131.425 1051.41 133.039C1052.46 134.232 1052.98 135.657 1052.81 137.25C1052.61 139.196 1051.73 140.466 1050.26 141.667L1049.69 142.613C1047.39 143.958 1045.77 143.728 1043.23 143.168C1037.52 141.906 1031.99 139.608 1026.41 137.861Q1006.72 131.78 987.119 125.405L882.4 91.6C861.487 84.8601 840.601 77.4718 819.309 72.0262L819.299 55.9597Z"/>
	<path fill="#DDE2A3" transform="scale(0.289062 0.289062)" d="M288.015 658.925L371.3 659.02Q350.781 679.517 330.006 699.756Q308.884 720.017 287.976 740.498C287.481 713.34 287.973 686.092 288.015 658.925Z"/>
	<path fill="#5EB57B" transform="scale(0.289062 0.289062)" d="M807.446 96.8019L965.203 147.665C978.555 152.017 992.079 156.12 1005.51 160.202C1011.36 161.977 1017.41 163.391 1023.15 165.467C1024.6 165.994 1025.57 166.606 1026.53 167.844C1027.56 169.162 1028.25 170.787 1027.97 172.48C1027.66 174.44 1026.22 175.991 1024.65 177.087C1022.35 178.69 1019.82 177.774 1017.26 177.28L863.211 129.426C840.794 122.51 818.273 114.388 795.515 108.756L807.446 96.8019Z"/>
	<path fill="#F2F1E3" transform="scale(0.289062 0.289062)" d="M235.726 658.989L257.505 658.994L257.617 803.436C250.33 803.243 243.013 803.388 235.722 803.409L235.726 658.989Z"/>
	<path fill="#448B69" transform="scale(0.289062 0.289062)" d="M1014.9 749.814L1015.2 750.089C1016.1 753.39 1015.55 757.68 1015.49 761.126C982.811 769.458 950.799 779.397 918.341 788.48C884.138 798.052 848.75 807 815.14 818.247L814.748 817.939C813.402 814.351 814.37 807.662 814.415 803.712L945.845 767.696L986.583 756.652C995.92 754.149 1005.33 751.255 1014.9 749.814Z"/>
	<path fill="#5EB57B" transform="scale(0.289062 0.289062)" d="M711.289 77.7598L804.378 77.5245L804.376 91.7495C801.805 94.8895 798.86 97.8188 796.108 100.807L789.999 107.133C779.904 106.062 769.514 106.584 759.367 106.614Q735.23 106.776 711.094 106.488L711.289 77.7598Z"/>
	<path fill="#5EB57B" transform="scale(0.289062 0.289062)" d="M268.519 77.8295L291.053 77.8557L291.157 107.552L229.466 107.555L212.245 107.515C210.618 106.589 208.958 105.571 207.669 104.192C202.395 98.5518 204.398 85.2121 204.457 77.9261Q236.488 78.0718 268.519 77.8295Z"/>
	<path fill="#448B69" transform="scale(0.289062 0.289062)" d="M1014.62 823.326L1015.25 823.563C1016.28 826.029 1015.78 830 1015.74 832.687L815.532 912.773L814.8 912.495C813.506 908.823 814.379 902.796 814.425 898.833C836.017 889.675 858.17 881.691 880.067 873.3Q947.034 847.478 1014.62 823.326Z"/>
	<path fill="#F2F1E3" transform="scale(0.289062 0.289062)" d="M229.934 904.029C231.373 907.788 230.43 918.025 230.727 922.648C209.244 932.709 186.337 942.232 165.975 954.38Q130.773 954.137 95.571 954.476L94.7916 954.303C97.6267 950.605 215.061 909.665 229.934 904.029Z"/>
	<path fill="#5EB57B" transform="scale(0.289062 0.289062)" d="M763.78 805.844L785.623 805.885L785.711 917.192L763.755 917.238L763.78 805.844Z"/>
	<path fill="#448B69" transform="scale(0.289062 0.289062)" d="M235.615 808.65L257.5 808.708L257.424 917.624C250.16 917.419 242.865 917.57 235.597 917.593L235.615 808.65Z"/>
	<path fill="#448B69" transform="scale(0.289062 0.289062)" d="M790.651 805.841L809.336 805.779L809.413 881.021C809.418 888.386 810.575 910.64 808.77 916.221C802.686 916.897 796.73 917.103 790.616 917.124L790.651 805.841Z"/>
	<path fill="#DDE2A3" transform="scale(0.289062 0.289062)" d="M583.164 752.899L622.102 714.859L622.496 791.961C618.446 787.222 614.532 784.007 609.174 780.838C612.153 777.649 615.918 773.118 615.843 768.5C615.823 767.276 615.369 766.496 614.748 765.477L612.323 764.241C609.24 767.077 610.463 772.371 607.731 775.691C606.488 777.203 604.504 777.779 602.63 777.974C581.747 780.145 590.505 768.839 584.135 763.638L582.843 763.567L583.794 762.106C582.841 760.582 582.156 759.166 581.571 757.466C581.716 755.529 582.461 754.719 583.691 753.267L583.164 752.899Z"/>
	<path fill="#291725" transform="scale(0.289062 0.289062)" d="M583.691 753.267C589.723 748.921 596.945 748.461 604.115 749.624C607.384 750.154 612.074 751.042 614.166 753.847C615.266 755.322 615.456 756.934 615.13 758.682C614.214 759.832 613.292 760.974 612.433 762.168L612.963 763.677L612.323 764.241C609.24 767.077 610.463 772.371 607.731 775.691C606.488 777.203 604.504 777.779 602.63 777.974C581.747 780.145 590.505 768.839 584.135 763.638L582.843 763.567L583.794 762.106C582.841 760.582 582.156 759.166 581.571 757.466C581.716 755.529 582.461 754.719 583.691 753.267Z"/>
	<path fill="#F2F1E3" transform="scale(0.289062 0.289062)" d="M584.135 763.638L582.843 763.567L583.794 762.106C590.766 765.747 599.257 767.056 606.88 764.6Q609.781 763.669 612.433 762.168L612.963 763.677L612.323 764.241C609.24 767.077 610.463 772.371 607.731 775.691C606.488 777.203 604.504 777.779 602.63 777.974C581.747 780.145 590.505 768.839 584.135 763.638Z"/>
	<path fill="#656678" transform="scale(0.289062 0.289062)" d="M592.452 753.544C594.546 753.359 596.669 753.335 598.77 753.378C602.122 753.447 607.463 754.342 609.83 756.786L609.806 758.062C608.267 759.641 606.312 760.069 604.27 760.731C599.752 761.235 591.494 761.352 587.784 758.26C586.918 757.539 587.133 757.492 587.035 756.469C588.444 754.712 590.402 754.267 592.452 753.544Z"/>
	<path fill="#F2F1E3" transform="scale(0.289062 0.289062)" d="M248.731 529.833L257.769 529.777Q257.892 558.749 257.693 587.721C251.4 596.359 245.46 605.279 239.401 614.083L235.677 619.908L235.793 529.85L248.731 529.833Z"/>
	<path fill="#F2F1E3" transform="scale(0.289062 0.289062)" d="M402.562 530.028L420.162 529.985L420.037 581.073C420.034 581.939 419.852 586.912 420.342 587.291C421.378 588.094 421.846 587.195 422.672 588.647C420.522 594.89 414.68 601.951 411.057 607.59C408.309 612.02 405.313 616.314 402.412 620.646L402.562 530.028Z"/>
	<path fill="#DDE2A3" transform="scale(0.289062 0.289062)" d="M1011.15 499.934C1020.33 499.562 1029.62 499.859 1038.82 499.871C1039.01 500.213 1039.28 500.628 1039.41 501.016C1040.61 504.56 1039.86 550.741 1038.7 553.603L1038.54 553.79C1035.59 555.218 1023.17 554.135 1019.2 554.077C1016.82 535.963 1014.34 517.929 1011.15 499.934Z"/>
	<path fill="#F2F1E3" transform="scale(0.289062 0.289062)" d="M606.792 529.934L625.037 529.839C625.395 548.379 625.094 566.978 625.102 585.524C621.861 591.133 618.165 596.556 614.688 602.026L606.889 613.746L606.792 529.934Z"/>
	<path fill="#5EB57B" transform="scale(0.289062 0.289062)" d="M171.902 186.74L173.125 186.803C173.027 188.682 167.124 193.618 165.729 195.567C163.968 198.028 162.466 200.744 161.086 203.432C153.484 218.252 149.295 234.341 147.883 250.89C145.444 279.497 147.759 313.064 163.682 337.872C165.946 341.4 169.042 344.577 171.737 347.785L171.199 348.137L168.032 346.364C160.962 341.045 155.264 334.212 150.933 326.516C135.812 299.646 134.954 258.085 143.062 228.855C148.051 210.872 155.115 196.198 171.902 186.74Z"/>
	<path fill="#5EB57B" transform="scale(0.289062 0.289062)" d="M974.214 714.135C975.664 713.941 976.44 713.873 977.871 714.343C979.836 717.102 979.085 721.668 979.027 724.935C951.407 733.758 923.254 740.909 895.484 749.239C894.016 749.697 892.822 750.079 891.256 749.999C888.409 747.036 889.679 740.186 889.654 736.204Q914.336 729.763 938.919 722.949C950.528 719.747 962.296 715.905 974.214 714.135Z"/>
	<path fill="#DDE2A3" transform="scale(0.289062 0.289062)" d="M1044.06 500.416C1051.99 499.005 1061.68 500.057 1069.8 500.122C1070.07 500.814 1070.39 501.523 1070.45 502.276C1070.84 506.65 1063.94 543.526 1061.84 546.085C1061.87 546.188 1061.89 546.291 1061.91 546.395C1062.52 549.388 1061.9 551.865 1060.26 554.398C1054.78 554.228 1049.26 554.309 1043.77 554.273C1045.51 550.329 1045.56 504.775 1044.06 500.416Z"/>
	<path fill="#448B69" transform="scale(0.289062 0.289062)" d="M599.476 587.356C600.553 587.433 600.746 587.432 601.617 588.049C603.128 594.58 601.914 613.059 601.866 620.947C595.359 632.307 587.874 643.213 580.638 654.12L561.094 654.122L560.126 653.908L559.75 653.012C566.907 640.076 575.376 627.709 583.098 615.085C588.693 605.939 593.611 596.319 599.476 587.356Z"/>
	<path fill="#F2F1E3" transform="scale(0.289062 0.289062)" d="M1017.88 922.114L1018.39 922.786C1016.3 931.29 1015.74 938.968 1019.71 946.936C1021 949.531 1022.67 951.925 1023.62 954.678C1023.67 954.809 1023.71 954.941 1023.75 955.072C1003.33 955.536 982.78 955.058 962.344 955.141L953.668 955.127C974.726 943.538 996.507 933.134 1017.88 922.114Z"/>
	<path fill="#F2F1E3" transform="scale(0.289062 0.289062)" d="M235.147 400.176Q251.324 400.028 267.497 400.403L267.388 433.357L235.187 433.32L235.147 400.176Z"/>
	<path fill="#F2F1E3" transform="scale(0.289062 0.289062)" d="M753.836 437.251Q769.873 437.076 785.909 437.301Q785.616 454.008 785.592 470.718L753.764 470.735L753.836 437.251Z"/>
	<path fill="#F2F1E3" transform="scale(0.289062 0.289062)" d="M235.097 141.989C246.047 141.897 257.039 142.231 267.991 142.346L267.769 174.728Q251.457 174.783 235.146 174.642C234.98 163.766 235.106 152.867 235.097 141.989Z"/>
	<path fill="#F2F1E3" transform="scale(0.289062 0.289062)" d="M234.96 252.408C245.826 252.155 256.759 252.387 267.632 252.398L267.556 285.086Q251.259 285.025 234.962 285.164L234.96 252.408Z"/>
	<path fill="#F2F1E3" transform="scale(0.289062 0.289062)" d="M753.895 176.499Q769.586 176.343 785.274 176.731Q785.548 193.589 785.536 210.449C775.04 209.624 764.377 210.038 753.856 210.175L753.895 176.499Z"/>
	<path fill="#F2F1E3" transform="scale(0.289062 0.289062)" d="M246.365 289.758L267.618 289.719L267.523 322.044L255.37 322.092L235.048 322.332L235.029 289.847L246.365 289.758Z"/>
	<path fill="#448B69" transform="scale(0.289062 0.289062)" d="M397.176 593.069C398.883 598.407 397.566 621.016 397.502 627.952Q389.016 640.869 381.015 654.092L357.165 654.06C357.238 651.798 392.987 599.333 397.176 593.069Z"/>
	<path fill="#F2F1E3" transform="scale(0.289062 0.289062)" d="M235.192 438.105L267.514 438.069L267.444 470.284L235.106 470.396L235.192 438.105Z"/>
	<path fill="#DDE2A3" transform="scale(0.289062 0.289062)" d="M583.164 752.899L583.691 753.267C582.461 754.719 581.716 755.529 581.571 757.466C582.156 759.166 582.841 760.582 583.794 762.106L582.843 763.567L584.135 763.638C583.962 763.751 583.782 763.853 583.616 763.976C582.237 764.999 581.531 766.259 581.263 767.935C580.574 772.245 583.656 776.452 585.938 779.827C575.595 785.964 569.668 791.71 565.953 803.3L531.597 803.201Q557.616 778.292 583.164 752.899Z"/>
	<path fill="#F2F1E3" transform="scale(0.289062 0.289062)" d="M753.826 399.513C764.443 399.683 775.059 399.953 785.672 399.485L785.538 432.465L753.852 432.302L753.826 399.513Z"/>
	<path fill="#F2F1E3" transform="scale(0.289062 0.289062)" d="M753.809 289.381C764.354 289.118 774.941 289.519 785.502 289.307L785.517 322.262C774.947 322.349 764.4 322.021 753.818 322.224L753.809 289.381Z"/>
	<path fill="#F2F1E3" transform="scale(0.289062 0.289062)" d="M235.332 179.673L267.868 179.698L267.837 211.341C256.965 211.124 246.06 211.276 235.185 211.274L235.332 179.673Z"/>
	<path fill="#F2F1E3" transform="scale(0.289062 0.289062)" d="M753.924 251.908L785.441 251.883L785.421 284.558L753.872 284.51L753.924 251.908Z"/>
	<path fill="#F2F1E3" transform="scale(0.289062 0.289062)" d="M235.289 327.12L267.488 327.089C267.487 337.609 268.014 348.381 267.278 358.865L235.334 359.194L235.289 327.12Z"/>
	<path fill="#F2F1E3" transform="scale(0.289062 0.289062)" d="M235.167 363.885L267.414 363.917L267.332 395.556L235.163 395.583L235.167 363.885Z"/>
	<path fill="#F2F1E3" transform="scale(0.289062 0.289062)" d="M753.824 326.852C764.386 326.482 775.198 327.112 785.786 327.15C785.492 337.752 785.619 348.399 785.565 359.007Q769.709 358.712 753.852 358.931L753.824 326.852Z"/>
	<path fill="#F2F1E3" transform="scale(0.289062 0.289062)" d="M235.225 216.311C245.998 216.006 256.831 216.168 267.611 216.128L267.516 247.439L235.057 247.414L235.225 216.311Z"/>
	<path fill="#F2F1E3" transform="scale(0.289062 0.289062)" d="M753.926 215.071L785.304 215.035L785.353 247.213Q769.676 246.77 753.994 246.967L753.926 215.071Z"/>
	<path fill="#777F61" transform="scale(0.289062 0.289062)" d="M954.196 551.597C955.858 551.969 956.372 551.869 957.504 553.197C957.986 562.44 957.52 571.882 957.509 581.146L957.51 634.056L957.449 690.726C957.427 696.562 958.082 702.703 957.815 708.472C957.767 709.515 957.642 710.676 957.248 711.655C956.471 713.584 954.573 713.796 952.794 714.437C951.823 714.326 951.971 714.262 951.339 713.608C950.695 677.978 951.531 642.268 951.482 606.626L951.453 571.775C951.453 566.141 950.798 559.448 951.822 553.956C952.075 552.597 953.095 552.338 954.196 551.597Z"/>
	<path fill="#F2F1E3" transform="scale(0.289062 0.289062)" d="M753.799 140.559Q769.657 140.834 785.515 140.561L785.468 172.017C774.932 171.414 764.375 171.631 753.827 171.725L753.799 140.559Z"/>
	<path fill="#F2F1E3" transform="scale(0.289062 0.289062)" d="M753.798 363.827L785.518 363.871Q785.618 379.287 785.349 394.7Q769.567 394.818 753.785 394.71L753.798 363.827Z"/>
	<path fill="#F2F1E3" transform="scale(0.289062 0.289062)" d="M235.163 112.573L268.008 112.83L268.011 137.509L235.174 137.34L235.163 112.573Z"/>
	<path fill="#F2F1E3" transform="scale(0.289062 0.289062)" d="M753.838 111.523Q769.748 111.533 785.656 111.725C785.478 119.757 785.568 127.809 785.547 135.843C774.97 135.493 764.37 135.699 753.788 135.774Q753.732 123.648 753.838 111.523Z"/>
	<path fill="#A1B774" transform="scale(0.289062 0.289062)" d="M971.951 469.487L981.264 469.502C981.268 476.452 981.94 539.867 981.232 541.415C981.068 541.774 980.678 541.978 980.4 542.26L971.943 544.05L971.951 469.487Z"/>
	<path fill="#448B69" transform="scale(0.289062 0.289062)" d="M588.25 784.278C591.081 787.134 594.16 788.893 598.277 789.001C601.057 789.073 603.976 788.099 606.046 786.204C606.511 785.779 606.527 785.718 606.841 785.278C607.708 785.608 608.34 785.965 609.11 786.47C615.678 790.776 620.288 795.006 621.941 802.983C604.921 803.298 587.854 803.06 570.829 803.081C574.766 793.589 580.272 790.166 588.25 784.278Z"/>
	<path fill="#448B69" transform="scale(0.289062 0.289062)" d="M1003.21 487.112L1077.81 487.029C1078.25 487.828 1078.41 488.188 1078.58 489.049C1079.05 491.434 1078.72 492.853 1077.39 494.813C1072.7 496.268 1013.39 495.202 1003.3 495.196L1003.21 487.112Z"/>
	<path fill="#F2F1E3" transform="scale(0.289062 0.289062)" d="M790.646 437.475C796.649 437.527 802.695 438.403 808.662 439.033L808.561 471.586C802.595 471.511 796.593 471.102 790.629 470.852L790.646 437.475Z"/>
	<path fill="#F2F1E3" transform="scale(0.289062 0.289062)" d="M790.698 289.47C796.647 290.434 802.587 291.362 808.467 292.7C808.94 303.494 808.612 314.389 808.581 325.195C802.609 324.115 796.682 323.037 790.638 322.443Q790.551 305.956 790.698 289.47Z"/>
	<path fill="#F2F1E3" transform="scale(0.289062 0.289062)" d="M790.517 252.333C796.539 252.763 802.616 254.329 808.5 255.643C808.982 266.227 808.621 276.95 808.611 287.549C802.61 286.544 796.62 285.437 790.546 284.989L790.517 252.333Z"/>
	<path fill="#F2F1E3" transform="scale(0.289062 0.289062)" d="M790.547 399.836Q799.512 400.382 808.257 402.427C808.722 412.927 808.457 423.517 808.466 434.03C802.557 434.013 796.475 432.862 790.538 432.532L790.547 399.836Z"/>
	<path fill="#F2F1E3" transform="scale(0.289062 0.289062)" d="M790.583 176.982C796.461 178.704 802.386 180.225 808.251 182.005L808.276 214.326C802.41 212.797 796.575 211.445 790.616 210.327L790.583 176.982Z"/>
	<path fill="#F2F1E3" transform="scale(0.289062 0.289062)" d="M790.684 327.441C796.708 327.702 802.682 329.014 808.601 330.094L808.596 362.098Q799.735 360.021 790.661 359.309L790.684 327.441Z"/>
	<path fill="#F2F1E3" transform="scale(0.289062 0.289062)" d="M790.557 215.227Q799.592 216.78 808.422 219.247L808.441 249.905C804.375 251.165 795.081 247.86 790.488 247.37L790.557 215.227Z"/>
	<path fill="#F2F1E3" transform="scale(0.289062 0.289062)" d="M790.639 141.506C796.831 142.509 802.73 144.413 808.718 146.234L808.606 176.586C802.594 175.437 796.565 173.65 790.612 172.182L790.639 141.506Z"/>
	<path fill="#F2F1E3" transform="scale(0.289062 0.289062)" d="M790.678 364.346C796.663 364.614 802.602 365.788 808.507 366.748L808.363 397.532C802.987 397.683 796.269 395.401 790.693 394.867L790.678 364.346Z"/>
	<path fill="#5EB57B" transform="scale(0.289062 0.289062)" d="M1016.52 559.162C1032.59 559.078 1048.72 558.822 1064.78 559.418C1065.08 559.899 1065.12 559.928 1065.35 560.543C1066.22 562.861 1066.09 565.379 1065.14 567.608L1063.27 568.208L1015.57 568.196C1015.5 565.716 1014.88 560.989 1016.52 559.162Z"/>
	<path fill="#F2F1E3" transform="scale(0.289062 0.289062)" d="M790.688 112.672C796.477 114.728 802.532 116.283 808.432 118.013C808.791 125.799 808.585 133.674 808.611 141.471C802.665 139.703 796.797 137.867 790.653 136.919L790.688 112.672Z"/>
	<path fill="#AF8E5D" transform="scale(0.289062 0.289062)" d="M945.817 631.005L946.552 631.273C946.858 632.477 946.975 633.164 946.694 634.382C941.787 637.235 886.322 648.587 876.745 650.588L876.156 650.105C875.744 648.479 875.668 647.73 876.072 646.104C878.131 644.3 937.122 632.556 945.817 631.005Z"/>
	<path fill="#5EB57B" transform="scale(0.289062 0.289062)" d="M875.072 737.653L884.941 737.704C885.124 742.503 885.086 747.326 885.139 752.129L875.112 751.941L875.072 737.653Z"/>
	<path fill="#F2F1E3" transform="scale(0.289062 0.289062)" d="M590.572 782.951C594.046 780.89 599.559 782.675 603.817 781.641C604.238 783.207 604.339 783.15 603.585 784.566C600.981 785.972 597.861 785.97 595.019 785.255C593.365 784.839 591.922 783.959 590.572 782.951Z"/>
	<path fill="#291725" transform="scale(0.289062 0.289062)" d="M1139.69 174.103C1153.13 172.527 1167.21 175.922 1177.87 184.405Q1178.77 185.121 1179.63 185.88Q1180.5 186.639 1181.32 187.439Q1182.14 188.24 1182.93 189.079Q1183.71 189.919 1184.46 190.796Q1185.2 191.674 1185.9 192.586Q1186.6 193.499 1187.25 194.444Q1187.9 195.39 1188.51 196.366Q1189.12 197.343 1189.67 198.348Q1190.23 199.353 1190.74 200.384Q1191.25 201.415 1191.7 202.47Q1192.16 203.525 1192.57 204.601Q1192.97 205.677 1193.32 206.771Q1193.67 207.865 1193.97 208.976Q1194.27 210.086 1194.51 211.209Q1194.75 212.333 1194.94 213.467Q1195.13 214.601 1195.26 215.743C1196.19 223.933 1195.53 237.68 1190.14 244.351C1198.64 244.333 1206.53 245.64 1213.77 250.385C1221.31 255.33 1225.96 262.691 1227.64 271.514C1228.45 275.754 1228.79 280.753 1226.26 284.477L1124.84 284.823L1072.9 284.796C1063.95 284.786 1054.61 285.303 1045.71 284.548C1043.1 284.326 1040.41 283.991 1038.14 282.608C1037.98 281.38 1038.02 281.141 1038.77 280.067C1050.59 263.183 1075.41 257.337 1094.41 253.843C1094.98 251.147 1093.77 248.02 1093.21 245.363C1089.77 229.114 1091.71 212.709 1100.99 198.595C1110.14 184.682 1123.74 177.47 1139.69 174.103Z"/>
	<path fill="#F2F1E3" transform="scale(0.289062 0.289062)" d="M1140.2 179.104C1146.69 178.501 1152.86 178.752 1159.18 180.513Q1160.21 180.79 1161.23 181.117Q1162.24 181.445 1163.24 181.823Q1164.24 182.2 1165.22 182.627Q1166.19 183.054 1167.15 183.529Q1168.11 184.004 1169.04 184.526Q1169.97 185.047 1170.87 185.615Q1171.77 186.182 1172.65 186.794Q1173.52 187.405 1174.37 188.059Q1175.21 188.714 1176.02 189.409Q1176.83 190.104 1177.6 190.839Q1178.38 191.574 1179.11 192.346Q1179.85 193.118 1180.55 193.926Q1181.25 194.734 1181.9 195.576Q1182.56 196.417 1183.17 197.29Q1183.79 198.163 1184.36 199.066Q1184.93 199.968 1185.45 200.898C1190.95 210.871 1192.41 223.88 1188.96 234.795C1187.66 238.916 1185.48 242.704 1184.28 246.862C1186.92 251.16 1201.45 249.549 1206.71 251.795C1208.7 252.647 1210.74 254.269 1212.4 255.651C1217.67 260.046 1223.36 268.068 1223.77 275.123C1223.86 276.717 1223.36 277.572 1222.37 278.728C1221.43 279.217 1220.66 279.58 1219.59 279.661C1210.34 280.367 1200.46 279.627 1191.13 279.642L1128.59 279.768L1044.7 279.446C1049.72 276.945 1054.31 272.716 1059.36 269.931C1067.84 265.246 1078.54 261.252 1088.23 259.918C1092.58 259.319 1097 259.243 1101.33 258.486L1101.78 258.404C1103.07 254.667 1098.53 247.34 1097.64 243.293Q1097.35 241.974 1097.12 240.642Q1096.89 239.311 1096.72 237.969Q1096.56 236.628 1096.46 235.28Q1096.37 233.933 1096.33 232.582Q1096.3 231.231 1096.34 229.88Q1096.37 228.529 1096.47 227.182Q1096.57 225.834 1096.74 224.493Q1096.9 223.152 1097.14 221.821Q1097.37 220.49 1097.66 219.171Q1097.96 217.853 1098.32 216.551Q1098.68 215.249 1099.1 213.966Q1099.53 212.683 1100.01 211.422Q1100.5 210.161 1101.05 208.925Q1101.59 207.69 1102.2 206.483Q1102.81 205.275 1103.47 204.099Q1104.14 202.923 1104.86 201.781C1113.15 188.956 1125.57 182.24 1140.2 179.104Z"/>
</svg>
